<svg width="25" height="33" viewBox="0 0 25 33" fill="#FFF" xmlns="http://www.w3.org/2000/svg">
<circle class="st0" cx="12.5" cy="6.3" r="6"/>
<path fill="#004A77" stroke="#FFF" d="M19.2,19.9l0.6-2c0.1-0.4,0.4-0.8,0.8-1.1c0.2-0.1,0.5-0.2,0.7-0.2c0.3,0,0.5,0,0.8,0.1c0.3,0,0.5,0.1,0.7,0.3c0.2,0.1,0.4,0.3,0.5,0.5c0.1,0.2,0.2,0.4,0.3,0.7c0,0.2,0,0.5-0.1,0.7l-2.3,7.8c-0.2,0.8-0.6,1.5-1.1,2.2c-4.1,6.2-14,4.8-16.8-1.8c-0.7-1.6-2-10.6-2-10.6c0-0.3,0-0.5,0.1-0.7c0.1-0.2,0.2-0.5,0.5-0.6c0.2-0.2,0.4-0.3,0.7-0.4c0.3-0.1,0.6-0.1,0.8-0.1c0.5,0,1,0.2,1.4,0.5c0.4,0.3,0.6,0.7,0.7,1.2l1,4.5l4.1-13.8c0.1-0.5,0.5-0.8,0.9-1.1c0.5-0.2,1-0.3,1.5-0.2c0.5,0.1,1,0.4,1.2,0.8c0.3,0.4,0.4,0.9,0.2,1.3L11.4,18l1.3-4.2c0.1-0.2,0.2-0.4,0.3-0.6c0.2-0.2,0.4-0.3,0.6-0.5c0.2-0.1,0.5-0.2,0.7-0.2c0.3,0,0.5,0,0.8,0c0.5,0.1,1,0.4,1.2,0.8c0.3,0.4,0.3,0.9,0.2,1.3l-1.3,4.3l1-3.2c0.1-0.2,0.2-0.4,0.3-0.6c0.2-0.2,0.4-0.3,0.6-0.5c0.2-0.1,0.5-0.2,0.7-0.2c0.3,0,0.5,0,0.8,0c0.3,0.1,0.5,0.2,0.7,0.3c0.2,0.1,0.4,0.3,0.5,0.5c0.1,0.2,0.2,0.4,0.3,0.7c0,0.2,0,0.5-0.1,0.7l-0.3,1.2L19.2,19.9z"/>
</svg>
